<svg xmlns="http://www.w3.org/2000/svg" xmlns:xlink="http://www.w3.org/1999/xlink" width="980" height="680" viewBox="0 0 980 680">
  <defs>
    <linearGradient id="c" x1="50%" x2="50%" y1="0%" y2="100%">
      <stop offset="0%" stop-color="#FFF"/>
      <stop offset="100%" stop-color="#EDEDED"/>
    </linearGradient>
    <filter id="a" width="113.3%" height="120%" x="-6.7%" y="-10%" filterUnits="objectBoundingBox">
      <feMorphology in="SourceAlpha" operator="dilate" radius="2.5" result="shadowSpreadOuter1"/>
      <feOffset in="shadowSpreadOuter1" result="shadowOffsetOuter1"/>
      <feGaussianBlur in="shadowOffsetOuter1" result="shadowBlurOuter1" stdDeviation="17.5"/>
      <feColorMatrix in="shadowBlurOuter1" values="0 0 0 0 0 0 0 0 0 0 0 0 0 0 0 0 0 0 0.5 0"/>
    </filter>
    <rect id="b" width="900" height="600" x="0" y="0" rx="80"/>
  </defs>
  <g fill="none" fill-rule="evenodd">
    <g transform="translate(40 40)">
      <use xlink:href="#b" fill="#000" filter="url(#a)"/>
      <use xlink:href="#b" fill="url(#c)"/>
    </g>
    <path fill="#000" fill-rule="nonzero" d="M230.234 218.349c-9.376 11.095-24.378 19.846-39.38 18.595-1.875-15.001 5.47-30.94 14.064-40.785 9.376-11.408 25.785-19.534 39.067-20.159 1.563 15.627-4.531 30.941-13.751 42.349m13.595 21.565c-21.721-1.25-40.317 12.345-50.63 12.345-10.47 0-26.254-11.72-43.443-11.408-22.346.313-43.13 12.97-54.538 33.129-23.44 40.317-6.094 100.011 16.565 132.828 11.095 16.252 24.378 34.066 41.88 33.441 16.564-.625 23.127-10.782 43.13-10.782 20.158 0 25.94 10.782 43.442 10.47 18.127-.313 29.535-16.252 40.63-32.504 12.657-18.44 17.814-36.41 18.127-37.348-.313-.313-35.004-13.596-35.317-53.6-.312-33.441 27.347-49.38 28.597-50.318-15.627-23.128-40.004-25.628-48.443-26.253m125.483-45.318v243.622h37.817v-83.291h52.35c47.818 0 81.415-32.817 81.415-80.322s-32.972-80.01-80.165-80.01h-91.417Zm37.817 31.879h43.599c32.816 0 51.568 17.502 51.568 48.286 0 30.785-18.752 48.443-51.724 48.443h-43.443v-96.73Zm202.836 213.618c23.753 0 45.786-12.033 55.787-31.098h.782v29.223h35.004V316.954c0-35.16-28.128-57.82-71.415-57.82-40.16 0-69.851 22.972-70.945 54.538h34.066c2.813-15.002 16.72-24.847 35.785-24.847 23.128 0 36.098 10.783 36.098 30.629v13.439l-47.193 2.813c-43.91 2.656-67.664 20.627-67.664 51.88 0 31.567 24.535 52.507 59.695 52.507Zm10.157-28.91c-20.158 0-32.972-9.688-32.972-24.534 0-15.314 12.345-24.221 35.941-25.628l42.036-2.656v13.751c0 22.815-19.377 39.067-45.005 39.067Zm128.14 93.292c36.88 0 54.225-14.064 69.383-56.725l66.414-186.271h-38.442L801.08 405.4h-.78L755.762 261.48h-39.536l64.07 177.364-3.438 10.782c-5.782 18.283-15.158 25.315-31.879 25.315-2.969 0-8.75-.312-11.095-.625v29.223c2.188.625 11.564.937 14.377.937Z"/>
  </g>
</svg>
