<svg xmlns="http://www.w3.org/2000/svg" xmlns:xlink="http://www.w3.org/1999/xlink" width="980" height="680" viewBox="0 0 980 680">
  <defs>
    <linearGradient id="c" x1="50%" x2="50%" y1="0%" y2="100%">
      <stop offset="0%" stop-color="#FFF"/>
      <stop offset="100%" stop-color="#EDEDED"/>
    </linearGradient>
    <filter id="a" width="113.3%" height="120%" x="-6.7%" y="-10%" filterUnits="objectBoundingBox">
      <feMorphology in="SourceAlpha" operator="dilate" radius="2.5" result="shadowSpreadOuter1"/>
      <feOffset in="shadowSpreadOuter1" result="shadowOffsetOuter1"/>
      <feGaussianBlur in="shadowOffsetOuter1" result="shadowBlurOuter1" stdDeviation="17.5"/>
      <feColorMatrix in="shadowBlurOuter1" values="0 0 0 0 0 0 0 0 0 0 0 0 0 0 0 0 0 0 0.5 0"/>
    </filter>
    <rect id="b" width="900" height="600" x="0" y="0" rx="80"/>
  </defs>
  <g fill="none" fill-rule="evenodd">
    <g transform="translate(40 40)">
      <use xlink:href="#b" fill="#000" filter="url(#a)"/>
      <use xlink:href="#b" fill="url(#c)"/>
    </g>
    <g fill-rule="nonzero">
      <path fill="#5F6368" d="M468.132 336.005v92.971h-29.99V199.048h77.975c18.994 0 36.988 6.998 50.984 19.994 13.996 11.996 20.993 29.99 20.993 48.985 0 18.994-6.997 35.988-20.993 48.984-13.996 12.996-30.99 19.994-50.984 19.994l-47.985-1Zm0-108.966v79.975h49.984c10.997 0 21.993-3.998 28.991-11.996 15.995-14.995 15.995-39.987 1-54.983l-1-1c-7.997-7.997-17.994-12.995-28.99-11.996h-49.985ZM657.073 267.027c21.993 0 38.988 5.998 51.984 17.994 12.995 11.997 18.994 27.992 18.994 47.985v95.97h-27.992v-21.993h-1c-11.996 17.995-28.99 26.992-48.984 26.992-16.995 0-31.99-4.999-43.986-14.996-10.997-9.996-17.995-23.992-17.995-38.987 0-15.995 5.998-28.991 17.995-38.988 11.996-9.997 28.99-13.996 48.984-13.996 17.995 0 31.99 3 42.987 9.997v-6.998c0-9.997-3.999-19.994-11.996-25.992-7.998-6.997-17.995-10.996-28.991-10.996-16.995 0-29.99 6.998-38.988 20.993l-25.992-15.995c15.995-20.993 36.989-30.99 64.98-30.99ZM619.085 380.99c0 7.998 3.998 14.996 9.997 18.994 6.997 4.999 14.995 7.998 22.992 7.998 11.997 0 23.993-4.999 32.99-13.996 9.997-8.997 14.995-19.994 14.995-31.99-8.997-6.998-21.993-10.996-38.987-10.996-11.997 0-21.994 2.999-29.991 8.997-7.998 4.998-11.996 11.996-11.996 20.993ZM890 272.025l-98.969 226.929H761.04l36.989-78.975-64.98-146.954h31.99l46.985 112.965h1l45.986-112.965H890z"/>
      <path fill="#4285F4" d="M349.169 316.012c0-8.998-1-17.995-2-26.992H222.21v50.984h70.978c-3 15.995-11.997 30.99-25.992 39.988v32.99h42.986c24.992-22.994 38.988-56.983 38.988-96.97Z"/>
      <path fill="#34A853" d="M222.209 444.971c35.988 0 65.98-11.996 87.972-31.99l-42.986-32.99c-11.997 7.998-26.992 12.997-44.986 12.997-33.99 0-63.98-22.993-73.977-54.983h-43.986v33.99c22.992 44.985 67.978 72.976 117.963 72.976Z"/>
      <path fill="#FBBC04" d="M148.232 338.005c-5.998-15.995-5.998-33.99 0-50.984v-33.99h-43.986c-18.995 36.989-18.995 80.975 0 118.963l43.986-33.99Z"/>
      <path fill="#EA4335" d="M222.209 233.038c18.994 0 36.988 6.997 50.984 19.993l37.988-37.988c-23.993-21.993-55.983-34.989-87.973-33.99-49.984 0-95.97 27.992-117.963 72.978l43.986 33.99c8.998-31.99 38.988-54.983 72.978-54.983Z"/>
    </g>
  </g>
</svg>
