<svg xmlns="http://www.w3.org/2000/svg" xmlns:xlink="http://www.w3.org/1999/xlink" width="980" height="680" viewBox="0 0 980 680">
  <defs>
    <linearGradient id="c" x1="50%" x2="50%" y1="0%" y2="100%">
      <stop offset="0%" stop-color="#FFF"/>
      <stop offset="100%" stop-color="#EDEDED"/>
    </linearGradient>
    <linearGradient id="d" x1="-57.527%" x2="232.391%" y1="50.124%" y2="50.124%">
      <stop offset="0%" stop-color="#007940"/>
      <stop offset="22.85%" stop-color="#00873F"/>
      <stop offset="74.33%" stop-color="#40A737"/>
      <stop offset="100%" stop-color="#5CB531"/>
    </linearGradient>
    <linearGradient id="e" x1=".183%" x2="100.273%" y1="49.96%" y2="49.96%">
      <stop offset="0%" stop-color="#007940"/>
      <stop offset="22.85%" stop-color="#00873F"/>
      <stop offset="74.33%" stop-color="#40A737"/>
      <stop offset="100%" stop-color="#5CB531"/>
    </linearGradient>
    <linearGradient id="f" x1="-62.802%" x2="253.671%" y1="49.858%" y2="49.858%">
      <stop offset="0%" stop-color="#007940"/>
      <stop offset="22.85%" stop-color="#00873F"/>
      <stop offset="74.33%" stop-color="#40A737"/>
      <stop offset="100%" stop-color="#5CB531"/>
    </linearGradient>
    <linearGradient id="g" x1=".176%" x2="101.808%" y1="50.006%" y2="50.006%">
      <stop offset="0%" stop-color="#1F286F"/>
      <stop offset="47.51%" stop-color="#004E94"/>
      <stop offset="82.61%" stop-color="#0066B1"/>
      <stop offset="100%" stop-color="#006FBC"/>
    </linearGradient>
    <linearGradient id="h" x1="-.576%" x2="98.133%" y1="49.914%" y2="49.914%">
      <stop offset="0%" stop-color="#6C2C2F"/>
      <stop offset="17.35%" stop-color="#882730"/>
      <stop offset="57.31%" stop-color="#BE1833"/>
      <stop offset="85.85%" stop-color="#DC0436"/>
      <stop offset="100%" stop-color="#E60039"/>
    </linearGradient>
    <filter id="a" width="113.3%" height="120%" x="-6.7%" y="-10%" filterUnits="objectBoundingBox">
      <feMorphology in="SourceAlpha" operator="dilate" radius="2.5" result="shadowSpreadOuter1"/>
      <feOffset in="shadowSpreadOuter1" result="shadowOffsetOuter1"/>
      <feGaussianBlur in="shadowOffsetOuter1" result="shadowBlurOuter1" stdDeviation="17.5"/>
      <feColorMatrix in="shadowBlurOuter1" values="0 0 0 0 0 0 0 0 0 0 0 0 0 0 0 0 0 0 0.5 0"/>
    </filter>
    <rect id="b" width="900" height="600" x="0" y="0" rx="80"/>
  </defs>
  <g fill="none" fill-rule="evenodd">
    <g transform="translate(40 40)">
      <use xlink:href="#b" fill="#000" filter="url(#a)"/>
      <use xlink:href="#b" fill="url(#c)"/>
    </g>
    <g fill-rule="nonzero">
      <path fill="#FFF" d="M814.206 489.206c0 55.556-45.238 100.794-100.793 100.794H165V190.794C165 135.238 210.238 90 265.794 90h548.412v399.206Z"/>
      <path fill="url(#d)" d="M35.714 263.095h41.667c1.19 0 3.968-.397 5.159-.397 7.936-1.587 14.682-8.73 14.682-18.65 0-9.524-6.746-16.667-14.682-18.651C81.35 225 78.968 225 77.38 225H35.714v38.095Z" transform="translate(599.92 123.73)"/>
      <path fill="url(#e)" d="M72.619 0C32.937 0 .397 32.143.397 72.222v75H102.38c2.38 0 5.159 0 7.143.397 23.016 1.19 40.08 13.095 40.08 33.73 0 16.27-11.509 30.159-32.937 32.937v.793c23.412 1.588 41.27 14.683 41.27 34.921 0 21.825-19.842 36.111-46.032 36.111H0v146.826h105.952c39.683 0 72.223-32.143 72.223-72.223V0H72.619Z" transform="translate(599.92 123.73)"/>
      <path fill="url(#f)" d="M92.063 186.111c0-9.524-6.746-15.873-14.682-17.063-.794 0-2.778-.397-3.968-.397H35.714v34.92h37.699c1.19 0 3.571 0 3.968-.396 7.936-1.19 14.682-7.54 14.682-17.064Z" transform="translate(599.92 123.73)"/>
      <path fill="url(#g)" d="M108.333 33.73c-39.682 0-72.222 32.143-72.222 72.222v178.175c20.238 9.92 41.27 16.27 62.302 16.27 25 0 38.492-15.08 38.492-35.714v-84.127h61.905v83.73c0 32.54-20.239 59.127-88.89 59.127-41.666 0-74.206-9.127-74.206-9.127V466.27h105.953c39.682 0 72.222-32.143 72.222-72.222V33.73H108.333Z" transform="translate(165 90)"/>
      <path fill="url(#h)" d="M307.937 33.73c-39.683 0-72.223 32.143-72.223 72.222v94.445c18.254-15.476 50-25.397 101.19-23.016 27.382 1.19 56.747 8.73 56.747 8.73v30.556c-14.683-7.54-32.143-14.286-54.762-15.873-38.889-2.778-62.302 16.27-62.302 49.603 0 33.73 23.413 52.778 62.302 49.603 22.619-1.587 40.08-8.73 54.762-15.873v30.556s-28.968 7.54-56.746 8.73c-51.19 2.38-82.937-7.54-101.19-23.016v166.666h105.952c39.682 0 72.222-32.142 72.222-72.222V33.731H307.937Z" transform="translate(165 90)"/>
    </g>
  </g>
</svg>
