<svg xmlns="http://www.w3.org/2000/svg" xmlns:xlink="http://www.w3.org/1999/xlink" width="980" height="680" viewBox="0 0 980 680">
  <defs>
    <linearGradient id="c" x1="50%" x2="50%" y1="0%" y2="100%">
      <stop offset="0%" stop-color="#FFF"/>
      <stop offset="100%" stop-color="#EDEDED"/>
    </linearGradient>
    <filter id="b" width="113.3%" height="120%" x="-6.7%" y="-10%" filterUnits="objectBoundingBox">
      <feMorphology in="SourceAlpha" operator="dilate" radius="2.5" result="shadowSpreadOuter1"/>
      <feOffset in="shadowSpreadOuter1" result="shadowOffsetOuter1"/>
      <feGaussianBlur in="shadowOffsetOuter1" result="shadowBlurOuter1" stdDeviation="17.5"/>
      <feColorMatrix in="shadowBlurOuter1" values="0 0 0 0 0 0 0 0 0 0 0 0 0 0 0 0 0 0 0.5 0"/>
    </filter>
    <rect id="a" width="900" height="600" x="30" y="0" rx="80"/>
  </defs>
  <g fill="none" fill-rule="evenodd" transform="translate(10 40)">
    <mask id="d" fill="#fff">
      <use xlink:href="#a"/>
    </mask>
    <use xlink:href="#a" fill="#000" filter="url(#b)"/>
    <use xlink:href="#a" fill="url(#c)"/>
    <g fill-rule="nonzero" mask="url(#d)">
      <path fill="#E21836" d="M187.844 0h239.411c33.42 0 54.205 27.24 46.41 60.77L362.2 539.323C354.335 572.737 320.875 600 287.432 600H48.045c-33.373 0-54.206-27.263-46.41-60.677L113.145 60.77C120.94 27.24 154.384 0 187.845 0"/>
      <path fill="#00447C" d="M407.334 0H682.65c33.414 0 18.347 27.24 10.486 60.77L581.691 539.323c-7.82 33.414-5.38 60.677-38.864 60.677H267.511c-33.484 0-54.205-27.263-46.34-60.677L332.612 60.77C340.524 27.24 373.897 0 407.334 0"/>
      <path fill="#007B84" d="M671.73 0h239.41c33.466 0 54.252 27.24 46.392 60.77L846.087 539.323C838.22 572.737 804.737 600 771.277 600h-239.3c-33.484 0-54.252-27.263-46.41-60.677L597.03 60.77C604.826 27.24 638.246 0 671.73 0"/>
      <path fill="#FEFEFE" d="M250.37 153.362c-24.62.251-31.89 0-34.213-.548-.893 4.242-17.507 80.88-17.553 80.943-3.577 15.505-6.18 26.557-15.02 33.694-5.02 4.15-10.878 6.15-17.67 6.15-10.919 0-17.28-5.42-18.347-15.703l-.204-3.53s3.326-20.768 3.326-20.885c0 0 17.436-69.839 20.558-79.07.164-.525.21-.8.251-1.05-33.939.297-39.955 0-40.37-.55-.227.754-1.067 5.084-1.067 5.084l-17.804 78.714-1.53 6.676-2.958 21.836c0 6.477 1.272 11.764 3.805 16.234 8.111 14.174 31.249 16.298 44.338 16.298 16.864 0 32.684-3.583 43.374-10.124 18.557-10.965 23.412-28.104 27.742-43.334l2.008-7.814s17.961-72.534 21.013-81.97c.117-.525.163-.8.32-1.05Zm61.113 58.515c-4.33 0-12.243 1.05-19.35 4.534-2.58 1.324-5.02 2.853-7.593 4.376l2.323-8.385-1.272-1.412c-15.073 3.052-18.446 3.46-32.37 5.42l-1.166.777c-1.617 13.404-3.052 23.482-9.045 49.829-2.282 9.71-4.651 19.513-7.026 29.2l.642 1.232c14.267-.753 18.597-.753 30.998-.549l1.003-1.091c1.576-8.07 1.78-9.961 5.27-26.306 1.64-7.75 5.059-24.778 6.745-30.84 3.099-1.436 6.157-2.848 9.075-2.848 6.95 0 6.103 6.063 5.835 8.479-.298 4.055-2.83 17.302-5.427 28.675l-1.733 7.34c-1.208 5.422-2.533 10.691-3.74 16.066l.525 1.074c14.063-.753 18.352-.753 30.361-.549l1.413-1.091c2.17-12.605 2.806-15.978 6.658-34.33l1.937-8.432c3.764-16.503 5.655-24.87 2.807-31.687-3.011-7.638-10.235-9.482-16.87-9.482Zm68.27 17.278c-7.475 1.435-12.243 2.392-16.981 3.01-4.698.754-9.279 1.436-16.503 2.44l-.572.52-.525.414c-.753 5.38-1.278 10.03-2.276 15.499-.846 5.654-2.147 12.08-4.266 21.31-1.64 7.067-2.486 9.53-3.42 12.016-.91 2.486-1.913 4.902-3.757 11.852l.432.642.361.589c6.752-.321 11.17-.549 15.71-.59 4.534-.163 9.231 0 16.502.041l.636-.519.683-.572c1.05-6.267 1.208-7.953 1.85-11.011.636-3.28 1.733-7.82 4.423-19.946 1.272-5.695 2.69-11.373 4.009-17.185 1.371-5.789 2.807-11.49 4.172-17.186l-.204-.688-.274-.636Zm.159-23.296c-6.792-4.01-18.714-2.737-26.738 2.8-8 5.428-8.91 13.13-2.142 17.192 6.676 3.898 18.645 2.737 26.598-2.848 7.983-5.544 8.981-13.176 2.282-17.144Zm41.079 92.844c13.742 0 27.829-3.787 38.432-15.026 8.158-9.115 11.898-22.676 13.194-28.26 4.219-18.511.933-27.153-3.192-32.417-6.268-8.024-17.343-10.597-28.833-10.597-6.91 0-23.365.683-36.22 12.535-9.232 8.548-13.498 20.15-16.072 31.272-2.596 11.332-5.584 31.733 13.177 39.325 5.789 2.486 14.133 3.168 19.514 3.168Zm-1.074-41.647c3.169-14.017 6.909-25.781 16.456-25.781 7.48 0 8.024 8.753 4.697 22.816-.595 3.122-3.326 14.73-7.02 19.672-2.579 3.647-5.63 5.858-9.004 5.858-1.003 0-6.973 0-7.066-8.864-.047-4.376.846-8.846 1.937-13.701ZM506.97 296.9l1.074-1.091c1.523-8.07 1.774-9.967 5.147-26.307 1.686-7.75 5.176-24.777 6.815-30.84 3.105-1.441 6.11-2.853 9.121-2.853 6.903 0 6.063 6.063 5.789 8.478-.251 4.062-2.784 17.303-5.427 28.676l-1.64 7.34c-1.254 5.428-2.62 10.691-3.828 16.072l.525 1.073c14.11-.752 18.236-.752 30.315-.548l1.46-1.091c2.118-12.61 2.69-15.984 6.658-34.33l1.89-8.438c3.782-16.503 5.696-24.865 2.895-31.681-3.099-7.639-10.37-9.483-16.912-9.483-4.335 0-12.289 1.045-19.356 4.535-2.526 1.324-5.059 2.847-7.545 4.376l2.165-8.385-1.161-1.418c-15.067 3.057-18.51 3.466-32.416 5.427l-1.068.776c-1.686 13.404-3.058 23.476-9.05 49.829-2.282 9.71-4.652 19.513-7.02 29.2l.635 1.231c14.291-.752 18.557-.752 30.934-.548Zm103.67.545c.886-4.33 6.156-29.994 6.203-29.994 0 0 4.487-18.83 4.761-19.513 0 0 1.412-1.961 2.825-2.737h2.077c19.601 0 41.735 0 59.084-12.762 11.805-8.754 19.875-21.68 23.476-37.388.934-3.851 1.622-8.432 1.622-13.013 0-6.016-1.208-11.969-4.697-16.62-8.847-12.376-26.464-12.604-46.8-12.697l-10.026.093c-26.032.321-36.471.228-40.76-.298-.362 1.897-1.045 5.27-1.045 5.27s-9.325 43.217-9.325 43.287c0 0-22.315 91.885-23.365 96.215 22.729-.274 32.048-.274 35.97.157Zm17.278-76.77s9.915-43.13 9.868-42.967l.32-2.212.141-1.686 3.962.408s20.448 1.757 20.926 1.804c8.07 3.122 11.397 11.169 9.074 21.672-2.118 9.6-8.344 17.67-16.345 21.568-6.588 3.303-14.658 3.577-22.974 3.577h-5.38l.408-2.165Zm61.73 37.179c-2.62 11.169-5.631 31.57 13.036 38.84 5.952 2.533 11.286 3.286 16.707 3.011 5.725-.309 11.03-3.18 15.943-7.311-.444 1.698-.887 3.396-1.33 5.1l.845 1.091c13.428-.566 17.594-.566 32.142-.455l1.319-1.004c2.124-12.488 4.125-24.614 9.646-48.504a5210.455 5210.455 0 0 1 8.134-34.172l-.432-1.255c-15.02 2.784-19.035 3.379-33.483 5.427l-1.097.893c-.146 1.161-.298 2.276-.438 3.39-2.247-3.63-5.503-6.728-10.527-8.66-6.425-2.526-21.516.73-34.488 12.54-9.115 8.433-13.491 19.987-15.977 31.069Zm31.546.682c3.216-13.765 6.91-25.413 16.48-25.413 6.05 0 9.237 5.585 8.59 15.108a484.61 484.61 0 0 1-1.728 7.709c-.957 4.09-1.996 8.146-3.005 12.207-1.027 2.778-2.224 5.398-3.537 7.143-2.462 3.49-8.32 5.655-11.694 5.655-.957 0-6.862 0-7.066-8.707-.047-4.336.846-8.8 1.96-13.702Zm164.738-45.452-1.162-1.325c-14.862 3.011-17.553 3.49-31.208 5.334l-1.003 1.003c-.047.164-.088.415-.158.642l-.046-.227c-10.166 23.452-9.868 18.393-18.143 36.856-.047-.84-.047-1.365-.093-2.258l-2.072-40.025-1.301-1.325c-15.569 3.011-15.937 3.49-30.315 5.334l-1.12 1.003c-.158.479-.158 1.004-.252 1.576l.094.204c1.797 9.185 1.365 7.137 3.168 21.632.84 7.113 1.961 14.268 2.801 21.294 1.419 11.758 2.212 17.547 3.945 35.49-9.71 16.025-12.01 22.088-21.357 36.151l.064.14-6.583 10.41c-.752 1.098-1.435 1.85-2.392 2.172-1.05.519-2.416.612-4.313.612h-3.647l-5.42 18.032 18.597.32c10.918-.046 17.78-5.152 21.474-12.014l11.694-20.04h-.186l1.23-1.412c7.867-16.934 67.704-119.58 67.704-119.58ZM689.647 449.9h-7.89l29.201-96.582h9.687l3.075-9.95.298 11.065c-.362 6.839 5.019 12.902 19.152 11.898h16.345l5.625-18.598h-6.15c-3.536 0-5.176-.892-4.972-2.806l-.298-11.257h-30.268v.058c-9.786.205-39.01.94-44.927 2.516-7.16 1.844-14.705 7.27-14.705 7.27l2.964-9.96H638.47l-5.9 19.764-29.59 98.059h-5.743l-5.63 18.463H648l-1.89 6.156h27.787l1.844-6.156h7.797l6.11-19.94Zm-23.137-76.957c-4.534 1.254-12.972 5.059-12.972 5.059l7.504-24.684h22.496l-5.427 17.985s-6.95.408-11.601 1.64Zm.432 35.263s-7.067.887-11.718 1.938c-4.58 1.388-13.17 5.765-13.17 5.765l7.749-25.688h22.612l-5.473 17.985Zm-12.605 41.922h-22.566l6.542-21.679h22.496l-6.472 21.679Zm54.343-59.907h32.527l-4.674 15.137h-32.959l-4.948 16.55h28.838l-21.836 30.747c-1.529 2.258-2.9 3.057-4.423 3.694-1.529.776-3.536 1.686-5.859 1.686h-8l-5.497 18.125h20.926c10.877 0 17.302-4.949 22.046-11.443l14.974-20.495 3.215 20.81c.683 3.898 3.484 6.18 5.38 7.066 2.095 1.05 4.26 2.854 7.318 3.122 3.28.14 5.649.251 7.224.251h10.282l6.174-20.284h-4.055c-2.329 0-6.338-.39-7.02-1.12-.683-.887-.683-2.253-1.05-4.33L764 428.882h-13.357l5.859-6.973h32.894l5.06-16.55H764l4.744-15.137h30.362l5.631-18.667h-90.519l-5.538 18.667Zm-274.722 64.122 7.592-25.256h31.202l5.701-18.784h-31.23l4.767-15.546h30.519l5.655-18.189H411.8l-5.538 18.19h17.349l-4.628 15.545H401.59l-5.765 19.105h17.342l-10.118 33.414c-1.366 4.423.642 6.11 1.914 8.164 1.301 2.001 2.62 3.326 5.584 4.079 3.058.682 5.153 1.09 8 1.09h35.177l6.267-20.808-15.592 2.141c-3.011 0-11.35-.362-10.44-3.145Zm3.579-120.903-7.907 14.29c-1.692 3.123-3.215 5.06-4.587 5.953-1.208.752-3.6 1.068-7.066 1.068h-4.126l-5.515 18.282h13.702c6.588 0 11.648-2.416 14.063-3.624 2.597-1.389 3.28-.595 5.287-2.532l4.628-4.01H488.8l5.678-19.035H463.16l5.468-10.392h-31.091Zm63.165 121.27c-.73-1.05-.204-2.9.91-6.752l11.695-38.706h41.6c6.064-.088 10.44-.158 13.288-.362 3.058-.32 6.384-1.412 10.008-3.373 3.74-2.054 5.654-4.219 7.27-6.705 1.804-2.48 4.698-7.907 7.184-16.275l14.7-48.982-43.171.25s-13.293 1.961-19.146 4.126c-5.906 2.416-14.344 9.162-14.344 9.162l3.898-13.428h-26.668L470.591 457.49c-1.324 4.808-2.211 8.298-2.417 10.393-.069 2.258 2.85 4.493 4.74 6.18 2.235 1.686 5.538 1.411 8.706 1.686 3.332.25 8.07.408 14.612.408h20.494l6.29-21.24-18.346 1.732c-1.96 0-3.378-1.05-3.968-1.937Zm20.15-71.6h43.696l-2.778 8.706c-.39.204-1.325-.432-5.771.093h-37.837l2.69-8.8Zm8.753-29.201h44.063l-3.168 10.486s-20.768-.204-24.095.408c-14.635 2.533-23.184 10.352-23.184 10.352l6.384-21.246Zm33.143 67.062c-.362 1.301-.934 2.095-1.733 2.69-.887.572-2.323.776-4.464.776h-6.227l.368-10.603h-25.898l-1.05 51.837c-.04 3.74.32 5.905 3.058 7.638 2.737 2.165 11.169 2.44 22.519 2.44h16.228l5.859-19.403-14.128.776-4.697.274c-.642-.274-1.255-.525-1.938-1.208-.595-.59-1.599-.228-1.435-3.968l.11-13.287 14.817-.613c8 0 11.42-2.603 14.338-5.083 2.783-2.375 3.693-5.106 4.744-8.8l2.486-11.764h-20.36l-2.597 8.298Z"/>
    </g>
  </g>
</svg>
